<?xml version="1.0" encoding="UTF-8"?>
<svg xmlns="http://www.w3.org/2000/svg" viewBox="0 0 512 512" width="800" height="800">
<g transform="rotate(45,256,256)">
<path fill="#0055d4" d="M 312.264,0 H 278.506 L 132.22,334.769 v 78.769 L 278.505,512 h 33.758 c 37.134,0 67.516,-30.382 67.516,-67.516 V 67.516 C 379.78,30.382 349.398,0 312.264,0 Z"/>
<g fill="#2a7fff">
<path d="m 346.022,413.538 v 30.945 c 0,37.134 -30.382,67.516 -67.517,67.516 h -78.769 c -37.134,0 -67.516,-30.382 -67.516,-67.516 v -30.945 z"/>
<path d="M 346.022,67.516 V 334.769 H 132.22 V 67.516 C 132.22,30.382 162.602,0 199.736,0 h 78.769 c 37.135,0 67.517,30.382 67.517,67.516 z"/>
<path fill="#0055d4" d="m 444.484,132.22 h -33.758 v 247.56 h 33.758 C 481.618,379.78 512,349.398 512,312.264 V 199.736 c 0,-37.134 -30.382,-67.516 -67.516,-67.516 z"/>
</g>
<path fill="#2a7fff" d="M 410.725,132.22 H 67.516 C 30.382,132.22 0,162.602 0,199.736 v 112.527 c 0,37.134 30.382,67.516 67.516,67.516 h 343.209 c 37.134,0 67.517,-30.382 67.517,-67.516 V 199.736 c 0,-37.134 -30.383,-67.516 -67.517,-67.516 z"/>
<path fill="#5599ff" d="m 312.264,165.978 h -33.758 v 180.044 h 33.758 c 18.567,0 33.758,-15.191 33.758,-33.758 V 199.736 c 0,-18.567 -15.191,-33.758 -33.758,-33.758 z"/>
<path fill="#5599ff" d="m 312.264,199.736 v 112.527 c 0,18.567 -15.191,33.758 -33.758,33.758 h -78.769 c -18.567,0 -33.758,-15.191 -33.758,-33.758 V 199.736 c 0,-18.567 15.191,-33.758 33.758,-33.758 h 78.769 c 18.567,0 33.758,15.191 33.758,33.758 z"/>
<g fill="#ffffff">
<circle cx="210.989" cy="210.989" r="8.44"/>
<circle cx="256" cy="210.989" r="8.44"/>
<circle cx="301.011" cy="210.989" r="8.44"/>
<circle cx="210.989" cy="256" r="8.44"/>
<circle cx="256" cy="256" r="8.44"/>
<circle cx="301.011" cy="256" r="8.44"/>
<circle cx="210.989" cy="301.011" r="8.44"/>
<circle cx="256" cy="301.011" r="8.44"/>
<circle cx="301.011" cy="301.011" r="8.44"/>
</g>
</g>
</svg>
