<?xml version="1.0" encoding="UTF-8" standalone="no"?>
<!-- Uploaded to: SVG Repo, www.svgrepo.com, Generator: SVG Repo Mixer Tools -->

<svg
   height="800px"
   width="800px"
   version="1.1"
   id="Layer_1"
   viewBox="0 0 512 512"
   xml:space="preserve"
   sodipodi:docname="patch-svgrepo-com(1).svg"
   inkscape:version="1.4.4 (dcaf3e7d9e, 2026-05-05)"
   xmlns:inkscape="http://www.inkscape.org/namespaces/inkscape"
   xmlns:sodipodi="http://sodipodi.sourceforge.net/DTD/sodipodi-0.dtd"
   xmlns="http://www.w3.org/2000/svg"
   xmlns:svg="http://www.w3.org/2000/svg"><defs
   id="defs15" /><sodipodi:namedview
   id="namedview15"
   pagecolor="#ffffff"
   bordercolor="#000000"
   borderopacity="0.25"
   inkscape:showpageshadow="2"
   inkscape:pageopacity="0.0"
   inkscape:pagecheckerboard="0"
   inkscape:deskcolor="#d1d1d1"
   inkscape:zoom="0.73539105"
   inkscape:cx="485.456"
   inkscape:cy="421.54443"
   inkscape:window-width="1920"
   inkscape:window-height="1011"
   inkscape:window-x="0"
   inkscape:window-y="0"
   inkscape:window-maximized="1"
   inkscape:current-layer="g80" />





<g
   id="g80"
   transform="rotate(45,256,256)"><path
     style="fill:#0055d4"
     d="M 312.264,0 H 278.506 L 132.22,334.769 v 78.769 L 278.505,512 h 33.758 c 37.134,0 67.516,-30.382 67.516,-67.516 V 67.516 C 379.78,30.382 349.398,0 312.264,0 Z"
     id="path1" /><g
     id="g4"
     style="fill:#2a7fff">
	<path
   style="fill:#2a7fff"
   d="m 346.022,413.538 v 30.945 c 0,37.134 -30.382,67.516 -67.517,67.516 h -78.769 c -37.134,0 -67.516,-30.382 -67.516,-67.516 v -30.945 z"
   id="path2" />
	<path
   style="fill:#2a7fff"
   d="M 346.022,67.516 V 334.769 H 132.22 V 67.516 C 132.22,30.382 162.602,0 199.736,0 h 78.769 c 37.135,0 67.517,30.382 67.517,67.516 z"
   id="path3" />
	<path
   style="fill:#0055d4"
   d="m 444.484,132.22 h -33.758 v 247.56 h 33.758 C 481.618,379.78 512,349.398 512,312.264 V 199.736 c 0,-37.134 -30.382,-67.516 -67.516,-67.516 z"
   id="path4" />
</g><path
     style="fill:#2a7fff"
     d="M 410.725,132.22 H 67.516 C 30.382,132.22 0,162.602 0,199.736 v 112.527 c 0,37.134 30.382,67.516 67.516,67.516 h 343.209 c 37.134,0 67.517,-30.382 67.517,-67.516 V 199.736 c 0,-37.134 -30.383,-67.516 -67.517,-67.516 z"
     id="path5" /><path
     style="fill:#5599ff"
     d="m 312.264,165.978 h -33.758 v 180.044 h 33.758 c 18.567,0 33.758,-15.191 33.758,-33.758 V 199.736 c 0,-18.567 -15.191,-33.758 -33.758,-33.758 z"
     id="path6" /><path
     style="fill:#5599ff"
     d="m 312.264,199.736 v 112.527 c 0,18.567 -15.191,33.758 -33.758,33.758 h -78.769 c -18.567,0 -33.758,-15.191 -33.758,-33.758 V 199.736 c 0,-18.567 15.191,-33.758 33.758,-33.758 h 78.769 c 18.567,0 33.758,15.191 33.758,33.758 z"
     id="path7" /><g
     id="g15">
	<circle
   style="fill:#ffffff"
   cx="210.989"
   cy="210.989"
   r="8.4399996"
   id="circle7" />
	<circle
   style="fill:#ffffff"
   cx="256"
   cy="210.989"
   r="8.4399996"
   id="circle8" />
	<circle
   style="fill:#ffffff"
   cx="301.01099"
   cy="210.989"
   r="8.4399996"
   id="circle9" />
	<circle
   style="fill:#ffffff"
   cx="210.989"
   cy="256"
   r="8.4399996"
   id="circle10" />
	<circle
   style="fill:#ffffff"
   cx="256"
   cy="256"
   r="8.4399996"
   id="circle11" />
	<circle
   style="fill:#ffffff"
   cx="301.01099"
   cy="256"
   r="8.4399996"
   id="circle12" />
	<circle
   style="fill:#ffffff"
   cx="210.989"
   cy="301.01099"
   r="8.4399996"
   id="circle13" />
	<circle
   style="fill:#ffffff"
   cx="256"
   cy="301.01099"
   r="8.4399996"
   id="circle14" />
	<circle
   style="fill:#ffffff"
   cx="301.01099"
   cy="301.01099"
   r="8.4399996"
   id="circle15" />
</g></g>
</svg>
